<?xml version="1.0" encoding="utf-8"?><svg version="1.1" id="Layer_1" xmlns="http://www.w3.org/2000/svg" xmlns:xlink="http://www.w3.org/1999/xlink" x="0px" y="0px" viewBox="0 0 100.49 122.88" style="enable-background:new 0 0 100.49 122.88" xml:space="preserve"><g><path d="M4.38,62.41c-0.66-0.62-1.24-1.31-1.75-2.04c-1.62-2.33-2.45-5.12-2.6-7.98c-0.15-2.74,0.31-5.57,1.28-8.12 c0.8-2.11,1.96-4.05,3.42-5.64c-1.03-2.68-1.37-5.48-1.12-8.19c0.29-3.1,1.34-6.07,3-8.66c1.66-2.58,3.93-4.8,6.65-6.39 c2.47-1.44,5.31-2.35,8.4-2.52c1.71-4.66,4.97-8.02,8.92-10.15c2.43-1.31,5.12-2.14,7.87-2.5c2.71-0.36,5.48-0.26,8.09,0.28 c4.14,0.86,7.92,2.85,10.54,5.91c4.4-1.39,9.32-1.13,13.71,0.43c2.37,0.84,4.61,2.06,6.54,3.62c1.98,1.59,3.65,3.53,4.82,5.76 c1.47,2.8,2.17,6.01,1.74,9.5c2.87,0.77,5.5,2.21,7.79,4.15c2.76,2.33,5.02,5.39,6.56,8.84c1.53,3.43,2.35,7.25,2.23,11.12 c-0.15,4.86-1.75,9.78-5.23,14.1l-12.19,58.98H66.57l2.77-64.53h21.28c1.87-2.75,2.75-5.77,2.84-8.74c0.09-2.8-0.51-5.57-1.62-8.07 c-1.11-2.48-2.73-4.67-4.69-6.33c-2.2-1.86-4.84-3.03-7.63-3.12l-4.83-0.15l1.61-4.53c1.08-3.05,0.79-5.75-0.36-7.94 c-0.71-1.35-1.75-2.55-3-3.55c-1.3-1.04-2.83-1.88-4.47-2.46c-3.67-1.3-7.78-1.32-11.01,0.37l-3.08,1.62l-1.65-3.06 c-1.41-2.62-4.29-4.32-7.6-5.01c-1.85-0.38-3.82-0.45-5.75-0.2C37.46,7.43,35.6,8,33.92,8.91c-2.99,1.61-5.37,4.34-6.18,8.23 l-0.64,3.07l-3.12-0.29c-2.69-0.25-5.15,0.36-7.2,1.55c-1.73,1.01-3.19,2.43-4.25,4.1c-1.07,1.67-1.75,3.56-1.93,5.5 c-0.21,2.22,0.23,4.53,1.47,6.67l1.63,2.8l-2.66,1.85c-1.36,0.95-2.46,2.54-3.16,4.39C7.25,48.44,6.95,50.26,7.04,52 c0.09,1.61,0.52,3.14,1.37,4.35c0.57,0.82,1.36,1.51,2.37,2h0.75h18.47l5.34,64.53H16.82L4.38,62.41L4.38,62.41z M62.1,26.24 c2.51,0,4.55,2.04,4.55,4.55c0,2.51-2.04,4.55-4.55,4.55c-2.51,0-4.55-2.04-4.55-4.55C57.56,28.27,59.59,26.24,62.1,26.24 L62.1,26.24z M48.16,40.33c2.51,0,4.55,2.04,4.55,4.55c0,2.51-2.04,4.55-4.55,4.55c-2.51,0-4.55-2.04-4.55-4.55 C43.61,42.37,45.65,40.33,48.16,40.33L48.16,40.33z M28.46,31.69c2.51,0,4.55,2.04,4.55,4.55c0,2.51-2.04,4.55-4.55,4.55 s-4.55-2.04-4.55-4.55C23.91,33.73,25.94,31.69,28.46,31.69L28.46,31.69z M59.95,122.88H42l-5.34-64.53h26.06L59.95,122.88 L59.95,122.88z"/></g></svg>